<svg width="250" height="250" viewBox="0 0 250 250" fill="none" xmlns="http://www.w3.org/2000/svg">
<circle cx="125" cy="125" r="125" fill="#60246A"/>
<path d="M100.2 89.8V137.6C100.2 145 98.1 150.7 93.9 154.7C89.7667 158.7 84.1667 160.7 77.1 160.7C69.7 160.7 63.7667 158.6 59.3 154.4C54.8333 150.2 52.6 144.233 52.6 136.5H69.6C69.6 139.433 70.2 141.667 71.4 143.2C72.6 144.667 74.3333 145.4 76.6 145.4C78.6667 145.4 80.2667 144.733 81.4 143.4C82.5333 142.067 83.1 140.133 83.1 137.6V89.8H100.2ZM193.513 89.8V160H176.413V117.9L160.713 160H146.913L131.113 117.8V160H114.013V89.8H134.212L153.913 138.4L173.413 89.8H193.513Z" fill="#EFAA1F"/>
</svg>
